<?xml version="1.0" encoding="utf-8"?>
<!-- Generator: Adobe Illustrator 15.0.0, SVG Export Plug-In . SVG Version: 6.00 Build 0)  -->
<!DOCTYPE svg PUBLIC "-//W3C//DTD SVG 1.1//EN" "http://www.w3.org/Graphics/SVG/1.1/DTD/svg11.dtd">
<svg version="1.1" id="Layer_1" xmlns="http://www.w3.org/2000/svg" xmlns:xlink="http://www.w3.org/1999/xlink" x="0px" y="0px"
	 width="1024px" height="1024px" viewBox="0 0 1024 1024" enable-background="new 0 0 1024 1024" xml:space="preserve">
<g>
	<path fill="#1C75BC" d="M1024,844.352C1024,943.568,943.568,1024,844.351,1024H179.648C80.432,1024,0,943.568,0,844.352V179.648
		C0,80.432,80.432,0,179.648,0h664.702C943.568,0,1024,80.432,1024,179.648V844.352z"/>
	<g>
		<g>
			<g>
				<polygon fill="#FFFFFF" points="51.315,363.202 743.55,97.101 998.328,537.848 296.802,837.438 				"/>
				<path fill="#FFFFFF" d="M743.33,97.72l254.282,439.889l-700.58,299.187L52.016,363.468L743.33,97.72 M743.769,96.48
					L50.614,362.936L296.571,838.08l702.472-299.994L743.769,96.48L743.769,96.48z"/>
			</g>
			<g>
				<polygon fill="#E6E7E8" points="25.486,474.667 50.799,364.375 296.025,838.108 261.532,926.314 				"/>
				<path fill="#E6E7E8" d="M50.981,365.816l244.496,472.322l-34.011,86.972L26.014,474.598L50.981,365.816 M50.616,362.936
					L24.957,474.734L261.598,927.52l34.976-89.439L50.616,362.936L50.616,362.936z"/>
			</g>
			<g>
				<polygon fill="#E6E7E8" points="296.962,838.458 997.74,539.187 933.918,638.306 262.5,926.589 				"/>
				<path fill="#E6E7E8" d="M996.437,540.286l-62.856,97.62L263.401,925.657l33.951-86.822L996.437,540.286 M999.043,538.086
					L296.573,838.08L261.6,927.52l672.656-288.814L999.043,538.086L999.043,538.086z"/>
			</g>
			<g>
				<g>
					<polygon fill="#FFFFFF" points="833.24,251.26 134.69,525.355 158.982,572.283 857.174,292.662 					"/>
				</g>
				<g>
					<polygon fill="#FFFFFF" points="922.881,406.33 222.379,694.752 247.688,743.645 948.76,451.1 					"/>
				</g>
				<g>
					<polygon fill="#FFFFFF" points="804.637,201.777 109.973,477.605 129.978,516.25 828.08,242.332 					"/>
				</g>
				<g>
					<polygon fill="#FFFFFF" points="892.503,353.777 192.945,637.893 217.624,685.566 917.678,397.33 					"/>
				</g>
				<g>
					<polygon fill="#FFFFFF" points="743.769,96.48 50.614,362.936 100.354,459.023 794.104,183.559 					"/>
				</g>
				<g>
					<polygon fill="#FFFFFF" points="999.043,538.086 984.408,512.768 281.838,809.617 296.571,838.08 					"/>
				</g>
				<g>
					<polygon fill="#FFFFFF" points="862.336,301.594 163.697,581.391 188.251,628.822 887.364,344.889 					"/>
				</g>
				<g>
					<polygon fill="#FFFFFF" points="954.088,460.316 252.558,753.053 277.105,800.475 979.231,503.812 					"/>
				</g>
				<g>
					<line fill="#BF1B00" x1="109.973" y1="477.605" x2="100.354" y2="459.023"/>
				</g>
				<g>
					<line fill="#BF1B00" x1="794.104" y1="183.559" x2="804.637" y2="201.777"/>
				</g>
				<g>
					<polygon fill="#BF1B00" points="794.104,183.559 100.354,459.023 109.973,477.605 804.637,201.777 					"/>
				</g>
				<g opacity="0.5">
					<line fill="#1C75BC" x1="134.69" y1="525.355" x2="129.978" y2="516.25"/>
				</g>
				<g opacity="0.5">
					<line fill="#1C75BC" x1="828.08" y1="242.332" x2="833.24" y2="251.26"/>
				</g>
				<g opacity="0.5">
					<polygon fill="#1C75BC" points="828.08,242.332 129.978,516.25 134.69,525.355 833.24,251.26 					"/>
				</g>
				<g opacity="0.5">
					<line fill="#1C75BC" x1="163.697" y1="581.391" x2="158.982" y2="572.283"/>
				</g>
				<g opacity="0.5">
					<line fill="#1C75BC" x1="857.174" y1="292.662" x2="862.336" y2="301.594"/>
				</g>
				<g opacity="0.5">
					<polygon fill="#1C75BC" points="857.174,292.662 158.982,572.283 163.697,581.391 862.336,301.594 					"/>
				</g>
				<g opacity="0.5">
					<line fill="#1C75BC" x1="192.945" y1="637.893" x2="188.251" y2="628.822"/>
				</g>
				<g opacity="0.5">
					<line fill="#1C75BC" x1="887.364" y1="344.889" x2="892.503" y2="353.777"/>
				</g>
				<g opacity="0.5">
					<polygon fill="#1C75BC" points="887.364,344.889 188.251,628.822 192.945,637.893 892.503,353.777 					"/>
				</g>
				<g opacity="0.5">
					<line fill="#1C75BC" x1="917.678" y1="397.33" x2="922.881" y2="406.33"/>
				</g>
				<g opacity="0.5">
					<line fill="#1C75BC" x1="222.379" y1="694.752" x2="217.624" y2="685.566"/>
				</g>
				<g opacity="0.5">
					<polygon fill="#1C75BC" points="917.678,397.33 217.624,685.566 222.379,694.752 922.881,406.33 					"/>
				</g>
				<g opacity="0.5">
					<line fill="#1C75BC" x1="252.558" y1="753.053" x2="247.688" y2="743.645"/>
				</g>
				<g opacity="0.5">
					<line fill="#1C75BC" x1="948.76" y1="451.1" x2="954.088" y2="460.316"/>
				</g>
				<g opacity="0.5">
					<polygon fill="#1C75BC" points="948.76,451.1 247.688,743.645 252.558,753.053 954.088,460.316 					"/>
				</g>
				<g opacity="0.5">
					<line fill="#1C75BC" x1="281.838" y1="809.617" x2="277.105" y2="800.475"/>
				</g>
				<g opacity="0.5">
					<line fill="#1C75BC" x1="979.231" y1="503.812" x2="984.408" y2="512.768"/>
				</g>
				<g opacity="0.5">
					<polygon fill="#1C75BC" points="979.231,503.812 277.105,800.475 281.838,809.617 984.408,512.768 					"/>
				</g>
			</g>
		</g>
	</g>
</g>
</svg>
